<svg xmlns="http://www.w3.org/2000/svg" width="702.84564" height="681.96637"
  viewBox="0 0 702.84564 681.96637">
  <g transform="translate(-16.326255,-195.19223)">
    <path
      style="display:inline;fill:#687992;fill-opacity:1;stroke:#ffffff;stroke-width:0;stroke-miterlimit:4;stroke-dasharray:none;stroke-opacity:1"
      d="m 365.31266,195.25233 a 46.724621,46.342246 0 0 0 -17.90625,4.53125 l -244.34375,116.75 a 46.724621,46.342246 0 0 0 -25.281249,31.4375 l -60.28125,262.25 a 46.724621,46.342246 0 0 0 6.34375,35.53125 46.724621,46.342246 0 0 0 2.65625,3.6875 L 195.62516,859.72108 a 46.724621,46.342246 0 0 0 36.53125,17.4375 l 271.21875,-0.0625 a 46.724621,46.342246 0 0 0 36.53125,-17.40625 l 169.0625,-210.3125 a 46.724621,46.342246 0 0 0 9.03125,-39.21875 l -60.375,-262.25 a 46.724621,46.342246 0 0 0 -25.28125,-31.4375 l -244.375,-116.6875 a 46.724621,46.342246 0 0 0 -22.65625,-4.53125 z"
      id="path3055" />
    <path
      style="display:inline;fill:#324055;fill-opacity:1;stroke:#ffffff;stroke-width:0;stroke-miterlimit:4;stroke-dasharray:none;stroke-opacity:1"
      d="m 365.5713,231.44128 a 41.764808,41.423022 0 0 0 -16.00552,4.05026 l -218.40669,104.357 a 41.764808,41.423022 0 0 0 -22.59764,28.10041 L 54.679046,602.36114 a 41.764808,41.423022 0 0 0 5.670362,31.75961 41.764808,41.423022 0 0 0 2.374289,3.29608 L 213.8961,825.37675 a 41.764808,41.423022 0 0 0 32.65347,15.5865 l 242.4289,-0.0559 a 41.764808,41.423022 0 0 0 32.65346,-15.55857 l 151.11654,-187.9878 a 41.764808,41.423022 0 0 0 8.07258,-35.05569 L 626.85484,367.89308 A 41.764808,41.423022 0 0 0 604.2572,339.79266 L 385.82258,235.49154 a 41.764808,41.423022 0 0 0 -20.25128,-4.05026 z"
      id="path3055-0" />
    <path style="fill:#818cf8;fill-opacity:1;stroke-width:0.644123"
      d="m 422.77467,551.61931 -39.5816,39.5816 74.14808,86.51756 c 13.9422,16.4099 38.92255,17.42285 54.14823,2.19716 v 0 c 15.22569,-15.22569 14.21229,-40.20558 -2.1967,-54.14869 z"
      id="path1" />
    <path style="fill:#6366f1;fill-opacity:1;stroke-width:0.644123"
      d="m 422.77467,551.61931 -19.7908,19.7908 c 0,0 91.54907,91.54907 108.50551,108.50552 v 0 c 15.22569,-15.22569 14.21229,-40.20558 -2.1967,-54.14869 z"
      id="path2" />
    <polygon style="fill:#e68d2c" points="124.782,202.495 387.218,202.495 398.884,0 113.116,0 "
      id="polygon2"
      transform="matrix(0.45546347,-0.45546347,0.45546347,0.45546347,161.69344,563.31698)" />
    <polygon style="fill:#e06b34" points="256,202.495 387.218,202.495 398.884,0 256,0 "
      id="polygon3"
      transform="matrix(0.45546347,-0.45546347,0.45546347,0.45546347,161.69344,563.31698)" />
    <rect x="-174.84415" style="fill:#e9e9e9;stroke-width:0.644123" width="21.507898"
      height="61.326912" id="rect3" y="512.65979" transform="rotate(-45)" />
    <rect x="-84.854424" style="fill:#d4d4d4;stroke-width:0.644123" width="21.507898"
      height="61.326912" id="rect4" y="512.65979" transform="rotate(-45)" />
    <rect x="-129.84961" style="fill:#e9e9e9;stroke-width:0.644123" width="21.507898"
      height="47.618698" id="rect5" y="512.65979" transform="rotate(-45)" />
    <rect x="-119.09534" style="fill:#d4d4d4;stroke-width:0.644123" width="10.754271"
      height="47.618698" id="rect6" y="512.65979" transform="rotate(-45)" />
    <path style="fill:#b1b8f5;fill-opacity:1;stroke-width:0.644123"
      d="m 456.08362,526.77287 -97.73699,97.73699 c -10.72526,10.72526 -28.11349,10.7248 -38.83829,0 l -22.7718,-22.7718 136.57527,-136.57528 22.77181,22.77181 c 10.7248,10.7248 10.72525,28.11302 0,38.83828 z"
      id="path6" />
    <path style="fill:#8183ed;fill-opacity:1;stroke-width:0.644123"
      d="m 456.08362,526.77287 -48.8685,48.8685 -42.19094,-42.19095 68.28763,-68.28764 22.77181,22.77181 c 10.7248,10.7248 10.72525,28.11302 0,38.83828 z"
      id="path7" />
  </g>
</svg>
